<svg width="61" height="60" viewBox="0 0 61 60" fill="none" xmlns="http://www.w3.org/2000/svg">
<path d="M52.275 48.225L43.775 39.75C46.5175 36.2561 48.0055 31.9416 48 27.5C48 23.5444 46.827 19.6776 44.6294 16.3886C42.4318 13.0996 39.3082 10.5362 35.6537 9.02242C31.9992 7.50867 27.9778 7.1126 24.0982 7.8843C20.2186 8.65601 16.6549 10.5608 13.8579 13.3579C11.0608 16.1549 9.15601 19.7186 8.3843 23.5982C7.6126 27.4778 8.00867 31.4992 9.52242 35.1537C11.0362 38.8082 13.5996 41.9318 16.8886 44.1294C20.1776 46.327 24.0444 47.5 28 47.5C32.4416 47.5055 36.7561 46.0175 40.25 43.275L48.725 51.775C48.9574 52.0093 49.2339 52.1953 49.5386 52.3222C49.8432 52.4492 50.17 52.5145 50.5 52.5145C50.83 52.5145 51.1568 52.4492 51.4615 52.3222C51.7661 52.1953 52.0426 52.0093 52.275 51.775C52.5093 51.5426 52.6953 51.2661 52.8222 50.9615C52.9492 50.6568 53.0145 50.33 53.0145 50C53.0145 49.67 52.9492 49.3432 52.8222 49.0386C52.6953 48.7339 52.5093 48.4574 52.275 48.225ZM13 27.5C13 24.5333 13.8797 21.6332 15.528 19.1665C17.1762 16.6997 19.5189 14.7771 22.2598 13.6418C25.0006 12.5065 28.0166 12.2095 30.9264 12.7882C33.8361 13.367 36.5088 14.7956 38.6066 16.8934C40.7044 18.9912 42.133 21.6639 42.7118 24.5737C43.2906 27.4834 42.9935 30.4994 41.8582 33.2403C40.7229 35.9812 38.8003 38.3238 36.3336 39.9721C33.8668 41.6203 30.9667 42.5 28 42.5C24.0218 42.5 20.2065 40.9197 17.3934 38.1066C14.5804 35.2936 13 31.4783 13 27.5Z" fill="#231F20"/>
</svg>
