<svg width="61" height="60" viewBox="0 0 61 60" fill="none" xmlns="http://www.w3.org/2000/svg">
<path d="M52.275 48.224L43.775 39.749C46.5175 36.2552 48.0055 31.9407 48 27.499C48 23.5434 46.827 19.6766 44.6294 16.3876C42.4318 13.0986 39.3082 10.5352 35.6537 9.02144C31.9992 7.50769 27.9778 7.11162 24.0982 7.88333C20.2186 8.65503 16.6549 10.5598 13.8579 13.3569C11.0608 16.1539 9.15601 19.7176 8.3843 23.5972C7.6126 27.4768 8.00867 31.4982 9.52242 35.1527C11.0362 38.8072 13.5996 41.9308 16.8886 44.1284C20.1776 46.3261 24.0444 47.499 28 47.499C32.4416 47.5046 36.7561 46.0165 40.25 43.274L48.725 51.774C48.9574 52.0084 49.2339 52.1943 49.5386 52.3213C49.8432 52.4482 50.17 52.5135 50.5 52.5135C50.83 52.5135 51.1568 52.4482 51.4615 52.3213C51.7661 52.1943 52.0426 52.0084 52.275 51.774C52.5093 51.5416 52.6953 51.2651 52.8222 50.9605C52.9492 50.6558 53.0145 50.3291 53.0145 49.999C53.0145 49.669 52.9492 49.3422 52.8222 49.0376C52.6953 48.7329 52.5093 48.4564 52.275 48.224ZM13 27.499C13 24.5323 13.8797 21.6322 15.528 19.1655C17.1762 16.6987 19.5189 14.7762 22.2598 13.6408C25.0006 12.5055 28.0166 12.2085 30.9264 12.7873C33.8361 13.366 36.5088 14.7946 38.6066 16.8924C40.7044 18.9902 42.133 21.663 42.7118 24.5727C43.2906 27.4824 42.9935 30.4984 41.8582 33.2393C40.7229 35.9802 38.8003 38.3229 36.3336 39.9711C33.8668 41.6193 30.9667 42.499 28 42.499C24.0218 42.499 20.2065 40.9187 17.3934 38.1056C14.5804 35.2926 13 31.4773 13 27.499Z" fill="#231F20"/>
</svg>
