<svg width="28" height="34" viewBox="0 0 28 34" fill="none" xmlns="http://www.w3.org/2000/svg">
<path d="M25.6702 30.2852H2.33683C1.89481 30.2852 1.47088 30.4607 1.15832 30.7733C0.845761 31.0859 0.670166 31.5098 0.670166 31.9518C0.670166 32.3939 0.845761 32.8178 1.15832 33.1303C1.47088 33.4429 1.89481 33.6185 2.33683 33.6185H25.6702C26.1122 33.6185 26.5361 33.4429 26.8487 33.1303C27.1612 32.8178 27.3368 32.3939 27.3368 31.9518C27.3368 31.5098 27.1612 31.0859 26.8487 30.7733C26.5361 30.4607 26.1122 30.2852 25.6702 30.2852Z" fill="#231F20"/>
<path d="M2.33682 26.9522H2.48682L9.43682 26.3189C10.1981 26.2431 10.9102 25.9076 11.4535 25.3689L26.4535 10.3689C27.0357 9.75385 27.3503 8.93308 27.3284 8.08646C27.3066 7.23984 26.95 6.43642 26.3368 5.85224L21.7702 1.28557C21.1741 0.72573 20.3931 0.404502 19.5757 0.382991C18.7583 0.361479 17.9615 0.641186 17.3368 1.1689L2.33682 16.1689C1.79809 16.7122 1.46266 17.4242 1.38682 18.1856L0.670152 25.1356C0.6477 25.3797 0.679376 25.6257 0.762921 25.8562C0.846465 26.0867 0.979822 26.2959 1.15349 26.4689C1.30922 26.6234 1.49391 26.7456 1.69697 26.8285C1.90004 26.9115 2.11747 26.9535 2.33682 26.9522ZM19.4535 3.6189L24.0035 8.1689L20.6702 11.4189L16.2035 6.95224L19.4535 3.6189ZM4.62015 18.4689L14.0035 9.15224L18.5035 13.6522L9.17015 22.9856L4.17015 23.4522L4.62015 18.4689Z" fill="#231F20"/>
</svg>
