<svg width="28" height="34" viewBox="0 0 28 34" fill="none" xmlns="http://www.w3.org/2000/svg">
<path d="M25.6702 30.2852H2.33686C1.89484 30.2852 1.47091 30.4607 1.15835 30.7733C0.845792 31.0859 0.670197 31.5098 0.670197 31.9518C0.670197 32.3939 0.845792 32.8178 1.15835 33.1303C1.47091 33.4429 1.89484 33.6185 2.33686 33.6185H25.6702C26.1122 33.6185 26.5361 33.4429 26.8487 33.1303C27.1613 32.8178 27.3369 32.3939 27.3369 31.9518C27.3369 31.5098 27.1613 31.0859 26.8487 30.7733C26.5361 30.4607 26.1122 30.2852 25.6702 30.2852Z" fill="#231F20"/>
<path d="M2.33685 26.9522H2.48685L9.43685 26.3189C10.1982 26.2431 10.9102 25.9076 11.4535 25.3689L26.4535 10.3689C27.0357 9.75385 27.3503 8.93308 27.3285 8.08646C27.3066 7.23984 26.95 6.43642 26.3368 5.85224L21.7702 1.28557C21.1742 0.72573 20.3932 0.404502 19.5757 0.382991C18.7583 0.361479 17.9615 0.641186 17.3368 1.1689L2.33685 16.1689C1.79813 16.7122 1.46269 17.4242 1.38685 18.1856L0.670182 25.1356C0.647731 25.3797 0.679406 25.6257 0.762951 25.8562C0.846496 26.0867 0.979853 26.2959 1.15352 26.4689C1.30925 26.6234 1.49394 26.7456 1.69701 26.8285C1.90007 26.9115 2.1175 26.9535 2.33685 26.9522ZM19.4535 3.6189L24.0035 8.1689L20.6702 11.4189L16.2035 6.95224L19.4535 3.6189ZM4.62018 18.4689L14.0035 9.15224L18.5035 13.6522L9.17018 22.9856L4.17018 23.4522L4.62018 18.4689Z" fill="#231F20"/>
</svg>
