<svg width="28" height="34" viewBox="0 0 28 34" fill="none" xmlns="http://www.w3.org/2000/svg">
<path d="M25.6702 30.2852H2.33683C1.89481 30.2852 1.47088 30.4607 1.15832 30.7733C0.845761 31.0859 0.670166 31.5098 0.670166 31.9518C0.670166 32.3939 0.845761 32.8178 1.15832 33.1303C1.47088 33.4429 1.89481 33.6185 2.33683 33.6185H25.6702C26.1122 33.6185 26.5361 33.4429 26.8487 33.1303C27.1612 32.8178 27.3368 32.3939 27.3368 31.9518C27.3368 31.5098 27.1612 31.0859 26.8487 30.7733C26.5361 30.4607 26.1122 30.2852 25.6702 30.2852Z" fill="#231F20"/>
<path d="M2.33688 26.9513H2.48688L9.43688 26.3179C10.1982 26.2421 10.9103 25.9066 11.4535 25.3679L26.4535 10.3679C27.0357 9.75287 27.3504 8.93211 27.3285 8.08549C27.3066 7.23887 26.9501 6.43544 26.3369 5.85126L21.7702 1.28459C21.1742 0.724754 20.3932 0.403525 19.5758 0.382014C18.7583 0.360503 17.9615 0.64021 17.3369 1.16793L2.33688 16.1679C1.79816 16.7112 1.46272 17.4233 1.38688 18.1846L0.670213 25.1346C0.647761 25.3787 0.679437 25.6248 0.762982 25.8552C0.846526 26.0857 0.979883 26.2949 1.15355 26.4679C1.30928 26.6224 1.49397 26.7446 1.69704 26.8275C1.9001 26.9105 2.11754 26.9525 2.33688 26.9513ZM19.4535 3.61793L24.0035 8.16793L20.6702 11.4179L16.2035 6.95126L19.4535 3.61793ZM4.62021 18.4679L14.0035 9.15126L18.5035 13.6513L9.17021 22.9846L4.17021 23.4513L4.62021 18.4679Z" fill="#231F20"/>
</svg>
