<svg width="28" height="28" viewBox="0 0 28 28" fill="none" xmlns="http://www.w3.org/2000/svg">
<path d="M26.2757 5.81711H19.4559V3.53929C19.4239 2.66611 19.0469 1.84124 18.4077 1.2455C17.7685 0.649769 16.9192 0.331784 16.0459 0.361255H11.9541C11.0808 0.331784 10.2314 0.649769 9.59225 1.2455C8.95305 1.84124 8.57614 2.66611 8.54414 3.53929V5.81711H1.72432C1.36257 5.81711 1.01564 5.96082 0.759847 6.21661C0.504055 6.4724 0.360352 6.81933 0.360352 7.18108C0.360352 7.54282 0.504055 7.88975 0.759847 8.14555C1.01564 8.40134 1.36257 8.54504 1.72432 8.54504H3.08828V23.5487C3.08828 24.6339 3.51939 25.6747 4.28677 26.4421C5.05415 27.2094 6.09494 27.6405 7.18017 27.6405H20.8198C21.9051 27.6405 22.9458 27.2094 23.7132 26.4421C24.4806 25.6747 24.9117 24.6339 24.9117 23.5487V8.54504H26.2757C26.6374 8.54504 26.9844 8.40134 27.2402 8.14555C27.4959 7.88975 27.6396 7.54282 27.6396 7.18108C27.6396 6.81933 27.4959 6.4724 27.2402 6.21661C26.9844 5.96082 26.6374 5.81711 26.2757 5.81711ZM11.2721 3.53929C11.2721 3.32106 11.5585 3.08918 11.9541 3.08918H16.0459C16.4415 3.08918 16.7279 3.32106 16.7279 3.53929V5.81711H11.2721V3.53929ZM22.1838 23.5487C22.1838 23.9104 22.0401 24.2573 21.7843 24.5131C21.5285 24.7689 21.1816 24.9126 20.8198 24.9126H7.18017C6.81843 24.9126 6.4715 24.7689 6.21571 24.5131C5.95991 24.2573 5.81621 23.9104 5.81621 23.5487V8.54504H22.1838V23.5487Z" fill="#231F20"/>
<path d="M9.90812 20.8205C10.2699 20.8205 10.6168 20.6768 10.8726 20.421C11.1284 20.1652 11.2721 19.8183 11.2721 19.4565V14.0007C11.2721 13.6389 11.1284 13.292 10.8726 13.0362C10.6168 12.7804 10.2699 12.6367 9.90812 12.6367C9.54638 12.6367 9.19945 12.7804 8.94366 13.0362C8.68786 13.292 8.54416 13.6389 8.54416 14.0007V19.4565C8.54416 19.8183 8.68786 20.1652 8.94366 20.421C9.19945 20.6768 9.54638 20.8205 9.90812 20.8205Z" fill="#231F20"/>
<path d="M18.0919 20.8205C18.4537 20.8205 18.8006 20.6768 19.0564 20.421C19.3122 20.1652 19.4559 19.8183 19.4559 19.4565V14.0007C19.4559 13.6389 19.3122 13.292 19.0564 13.0362C18.8006 12.7804 18.4537 12.6367 18.0919 12.6367C17.7302 12.6367 17.3832 12.7804 17.1274 13.0362C16.8717 13.292 16.728 13.6389 16.728 14.0007V19.4565C16.728 19.8183 16.8717 20.1652 17.1274 20.421C17.3832 20.6768 17.7302 20.8205 18.0919 20.8205Z" fill="#231F20"/>
</svg>
