<svg width="30" height="30" viewBox="0 0 30 30" fill="none" xmlns="http://www.w3.org/2000/svg">
<path d="M27.8333 13.1663H16.8333V2.16634C16.8333 1.68011 16.6402 1.2138 16.2963 0.869979C15.9525 0.526162 15.4862 0.333008 15 0.333008C14.5137 0.333008 14.0474 0.526162 13.7036 0.869979C13.3598 1.2138 13.1666 1.68011 13.1666 2.16634V13.1663H2.16665C1.68042 13.1663 1.2141 13.3595 0.870284 13.7033C0.526468 14.0471 0.333313 14.5134 0.333313 14.9997C0.333313 15.4859 0.526468 15.9522 0.870284 16.296C1.2141 16.6399 1.68042 16.833 2.16665 16.833H13.1666V27.833C13.1666 28.3192 13.3598 28.7856 13.7036 29.1294C14.0474 29.4732 14.5137 29.6663 15 29.6663C15.4862 29.6663 15.9525 29.4732 16.2963 29.1294C16.6402 28.7856 16.8333 28.3192 16.8333 27.833V16.833H27.8333C28.3195 16.833 28.7859 16.6399 29.1297 16.296C29.4735 15.9522 29.6666 15.4859 29.6666 14.9997C29.6666 14.5134 29.4735 14.0471 29.1297 13.7033C28.7859 13.3595 28.3195 13.1663 27.8333 13.1663Z" fill="#231F20"/>
</svg>
