<svg width="30" height="30" viewBox="0 0 30 30" fill="none" xmlns="http://www.w3.org/2000/svg">
<path d="M27.8334 13.1673H16.8334V2.16732C16.8334 1.68109 16.6402 1.21477 16.2964 0.870956C15.9526 0.527139 15.4863 0.333984 15 0.333984C14.5138 0.333984 14.0475 0.527139 13.7037 0.870956C13.3599 1.21477 13.1667 1.68109 13.1667 2.16732V13.1673H2.16671C1.68048 13.1673 1.21416 13.3605 0.870345 13.7043C0.526529 14.0481 0.333374 14.5144 0.333374 15.0007C0.333374 15.4869 0.526529 15.9532 0.870345 16.297C1.21416 16.6408 1.68048 16.834 2.16671 16.834H13.1667V27.834C13.1667 28.3202 13.3599 28.7865 13.7037 29.1303C14.0475 29.4742 14.5138 29.6673 15 29.6673C15.4863 29.6673 15.9526 29.4742 16.2964 29.1303C16.6402 28.7865 16.8334 28.3202 16.8334 27.834V16.834H27.8334C28.3196 16.834 28.7859 16.6408 29.1297 16.297C29.4736 15.9532 29.6667 15.4869 29.6667 15.0007C29.6667 14.5144 29.4736 14.0481 29.1297 13.7043C28.7859 13.3605 28.3196 13.1673 27.8334 13.1673Z" fill="#231F20"/>
</svg>
