<svg width="30" height="30" viewBox="0 0 30 30" fill="none" xmlns="http://www.w3.org/2000/svg">
<path d="M27.8333 13.1663H16.8333V2.16634C16.8333 1.68011 16.6402 1.2138 16.2964 0.869979C15.9525 0.526162 15.4862 0.333008 15 0.333008C14.5138 0.333008 14.0475 0.526162 13.7036 0.869979C13.3598 1.2138 13.1667 1.68011 13.1667 2.16634V13.1663H2.16666C1.68043 13.1663 1.21412 13.3595 0.8703 13.7033C0.526483 14.0471 0.333328 14.5134 0.333328 14.9997C0.333328 15.4859 0.526483 15.9522 0.8703 16.296C1.21412 16.6399 1.68043 16.833 2.16666 16.833H13.1667V27.833C13.1667 28.3192 13.3598 28.7856 13.7036 29.1294C14.0475 29.4732 14.5138 29.6663 15 29.6663C15.4862 29.6663 15.9525 29.4732 16.2964 29.1294C16.6402 28.7856 16.8333 28.3192 16.8333 27.833V16.833H27.8333C28.3196 16.833 28.7859 16.6399 29.1297 16.296C29.4735 15.9522 29.6667 15.4859 29.6667 14.9997C29.6667 14.5134 29.4735 14.0471 29.1297 13.7033C28.7859 13.3595 28.3196 13.1663 27.8333 13.1663Z" fill="#231F20"/>
</svg>
